<svg xmlns="http://www.w3.org/2000/svg" width="58.548" height="59.217" viewBox="0 0 58.548 59.217">
  <g id="cost_of_living" data-name="cost of living" transform="translate(0 0)">
    <path id="Path_36894" data-name="Path 36894" d="M-1811,730.933V700.047l26.9-25.079,26.9,25.079v30.885" transform="translate(1813.377 -671.719)" fill="#fff"/>
    <path id="Path_36894_-_Outline" data-name="Path 36894 - Outline" d="M-1752.952,733.5h-4.754V703.648l-24.52-22.862-24.519,22.862V733.5h-4.755V701.58l29.274-27.3,29.274,27.3Z" transform="translate(1811.5 -674.285)"/>
    <g id="tuition" transform="translate(13.289 25.787)">
      <g id="Group_35535" data-name="Group 35535" transform="translate(1.138 2.571)">
        <ellipse id="Ellipse_242" data-name="Ellipse 242" cx="15.422" cy="15.422" rx="15.422" ry="15.422"/>
        <path id="dollar-coin_3_" data-name="dollar-coin (3)" d="M15.879,8.169V10A4.639,4.639,0,0,0,12.8,14.337a4.033,4.033,0,0,0,1.518,3.015A11.884,11.884,0,0,0,16.732,18.8a10.8,10.8,0,0,1,1.822,1.057c.371.309.41.391.41.648a1.519,1.519,0,0,1-1.542,1.542H13.566v3.084h2.313v1.542h3.084V24.843a4.639,4.639,0,0,0,3.084-4.337,4.033,4.033,0,0,0-1.518-3.015,11.884,11.884,0,0,0-2.419-1.449,10.8,10.8,0,0,1-1.822-1.057c-.371-.309-.41-.391-.41-.648A1.519,1.519,0,0,1,17.422,12.8h3.855V9.711H18.964V8.169ZM17.422,2A15.422,15.422,0,1,0,32.843,17.422,15.445,15.445,0,0,0,17.422,2Zm0,3.084A12.337,12.337,0,1,1,5.084,17.422,12.314,12.314,0,0,1,17.422,5.084Z" transform="translate(-2 -1.984)"/>
      </g>
      <g id="Group_35536" data-name="Group 35536">
        <ellipse id="Ellipse_242-2" data-name="Ellipse 242" cx="14.942" cy="14.942" rx="14.942" ry="14.942" fill="#a4e3dc"/>
        <path id="dollar-coin_3_2" data-name="dollar-coin (3)" d="M15.879,8.169V10A4.639,4.639,0,0,0,12.8,14.337a4.033,4.033,0,0,0,1.518,3.015A11.884,11.884,0,0,0,16.732,18.8a10.8,10.8,0,0,1,1.822,1.057c.371.309.41.391.41.648a1.519,1.519,0,0,1-1.542,1.542H13.566v3.084h2.313v1.542h3.084V24.843a4.639,4.639,0,0,0,3.084-4.337,4.033,4.033,0,0,0-1.518-3.015,11.884,11.884,0,0,0-2.419-1.449,10.8,10.8,0,0,1-1.822-1.057c-.371-.309-.41-.391-.41-.648A1.519,1.519,0,0,1,17.422,12.8h3.855V9.711H18.964V8.169ZM17.422,2A15.422,15.422,0,1,0,32.843,17.422,15.445,15.445,0,0,0,17.422,2Zm0,3.084A12.337,12.337,0,1,1,5.084,17.422,12.314,12.314,0,0,1,17.422,5.084Z" transform="translate(-2 -1.984)"/>
      </g>
    </g>
  </g>
</svg>
