<svg id="tuition" xmlns="http://www.w3.org/2000/svg" width="59.16" height="61.839" viewBox="0 0 59.16 61.839">
  <g id="Group_35535" data-name="Group 35535" transform="translate(2.106 4.755)">
    <ellipse id="Ellipse_242" data-name="Ellipse 242" cx="28.527" cy="28.527" rx="28.527" ry="28.527" transform="translate(0)"/>
    <path id="dollar-coin_3_" data-name="dollar-coin (3)" d="M27.675,13.411V16.8a8.582,8.582,0,0,0-5.705,8.023A7.46,7.46,0,0,0,24.777,30.4a21.983,21.983,0,0,0,4.474,2.68,19.98,19.98,0,0,1,3.371,1.956c.687.572.758.722.758,1.2a2.811,2.811,0,0,1-2.853,2.853H23.4v5.705h4.279v2.853H33.38V44.256a8.582,8.582,0,0,0,5.705-8.023,7.46,7.46,0,0,0-2.808-5.577,21.983,21.983,0,0,0-4.474-2.68,19.98,19.98,0,0,1-3.371-1.956c-.687-.572-.758-.722-.758-1.2a2.811,2.811,0,0,1,2.853-2.853h7.132V16.264H33.38V13.411ZM30.527,2A28.527,28.527,0,1,0,59.054,30.527,28.571,28.571,0,0,0,30.527,2Zm0,5.705A22.822,22.822,0,1,1,7.705,30.527,22.779,22.779,0,0,1,30.527,7.705Z" transform="translate(-2 -1.97)"/>
  </g>
  <g id="Group_35536" data-name="Group 35536" transform="translate(0 0)">
    <ellipse id="Ellipse_242-2" data-name="Ellipse 242" cx="28.527" cy="28.527" rx="28.527" ry="28.527" fill="#a4e3dc"/>
    <path id="dollar-coin_3_2" data-name="dollar-coin (3)" d="M27.675,13.411V16.8a8.582,8.582,0,0,0-5.705,8.023A7.46,7.46,0,0,0,24.777,30.4a21.983,21.983,0,0,0,4.474,2.68,19.98,19.98,0,0,1,3.371,1.956c.687.572.758.722.758,1.2a2.811,2.811,0,0,1-2.853,2.853H23.4v5.705h4.279v2.853H33.38V44.256a8.582,8.582,0,0,0,5.705-8.023,7.46,7.46,0,0,0-2.808-5.577,21.983,21.983,0,0,0-4.474-2.68,19.98,19.98,0,0,1-3.371-1.956c-.687-.572-.758-.722-.758-1.2a2.811,2.811,0,0,1,2.853-2.853h7.132V16.264H33.38V13.411ZM30.527,2A28.527,28.527,0,1,0,59.054,30.527,28.571,28.571,0,0,0,30.527,2Zm0,5.705A22.822,22.822,0,1,1,7.705,30.527,22.779,22.779,0,0,1,30.527,7.705Z" transform="translate(-2 -1.97)"/>
  </g>
</svg>
