<svg xmlns="http://www.w3.org/2000/svg" width="48.901" height="55.693" viewBox="0 0 48.901 55.693">
  <g id="Group_37068" data-name="Group 37068" transform="translate(0 0)">
    <g id="Group_35498" data-name="Group 35498" transform="translate(0 0)">
      <g id="Group_35496" data-name="Group 35496" transform="translate(3.073 2.841)">
        <path id="Path_36888" data-name="Path 36888" d="M-2582.841,666.35l-13.118-11.288-5.031-6.764-1.827-7.314v-9.871l3.2-5.644,5.947-5.919,10.83-2.663,9.428,2.663,7.636,5.919,3.338,6.912v7.737l-1.806,6.912-3.223,5.5-5.945,7.039Z" transform="translate(2605.754 -614.933)"/>
        <g id="Group_35495" data-name="Group 35495" transform="translate(0 0)">
          <ellipse id="Ellipse_240" data-name="Ellipse 240" cx="13.708" cy="9.791" rx="13.708" ry="9.791" transform="translate(11.096 8.25)"/>
          <path id="map-marker-Filled_1_" d="M229.914,2771c13.063,0,22.914,9.183,22.914,21.36,0,16.559-13.513,26.8-19.356,30.457a6.465,6.465,0,0,1-3.558,1.034,6.629,6.629,0,0,1-3.568-1.025c-5.825-3.638-19.346-13.876-19.346-30.466C207,2780.183,216.851,2771,229.914,2771Zm0,48.1a1.752,1.752,0,0,0,.957-.26l.057-.036c5.155-3.22,17.145-12.236,17.145-26.44,0-9.467-7.807-16.606-18.159-16.606s-18.159,7.14-18.159,16.606c0,14.219,11.971,23.227,17.118,26.44l.021.012A1.855,1.855,0,0,0,229.914,2819.1Zm0-39.238c7.35,0,13.33,5.608,13.33,12.5s-5.98,12.506-13.33,12.506-13.33-5.61-13.33-12.506S222.564,2779.859,229.914,2779.859Zm0,20.253c4.729,0,8.576-3.476,8.576-7.751s-3.847-7.747-8.576-7.747-8.576,3.476-8.576,7.747S225.185,2800.112,229.914,2800.112Z" transform="translate(-207 -2771)"/>
        </g>
      </g>
      <g id="Group_35497" data-name="Group 35497" transform="translate(0 0)">
        <path id="Path_36888-2" data-name="Path 36888" d="M-2582.841,666.35l-13.118-11.288-5.031-6.764-1.827-7.314v-9.871l3.2-5.644,5.947-5.919,10.83-2.663,9.428,2.663,7.636,5.919,3.338,6.912v7.737l-1.806,6.912-3.223,5.5-5.945,7.039Z" transform="translate(2605.754 -614.933)" fill="#80d5ec"/>
        <g id="Group_35495-2" data-name="Group 35495">
          <ellipse id="Ellipse_240-2" data-name="Ellipse 240" cx="11.75" cy="9.791" rx="11.75" ry="9.791" transform="translate(11.164 11.092)" fill="#fff"/>
          <path id="map-marker-Filled_1_2" data-name="map-marker-Filled_1_" d="M229.914,2771c13.063,0,22.914,9.183,22.914,21.36,0,16.559-13.513,26.8-19.356,30.457a6.465,6.465,0,0,1-3.558,1.034,6.629,6.629,0,0,1-3.568-1.025c-5.825-3.638-19.346-13.876-19.346-30.466C207,2780.183,216.851,2771,229.914,2771Zm0,48.1a1.752,1.752,0,0,0,.957-.26l.057-.036c5.155-3.22,17.145-12.236,17.145-26.44,0-9.467-7.807-16.606-18.159-16.606s-18.159,7.14-18.159,16.606c0,14.219,11.971,23.227,17.118,26.44l.021.012A1.855,1.855,0,0,0,229.914,2819.1Zm0-39.238c7.35,0,13.33,5.608,13.33,12.5s-5.98,12.506-13.33,12.506-13.33-5.61-13.33-12.506S222.564,2779.859,229.914,2779.859Zm0,20.253c4.729,0,8.576-3.476,8.576-7.751s-3.847-7.747-8.576-7.747-8.576,3.476-8.576,7.747S225.185,2800.112,229.914,2800.112Z" transform="translate(-207 -2771)"/>
        </g>
      </g>
    </g>
  </g>
</svg>
