<svg xmlns="http://www.w3.org/2000/svg" width="61.807" height="61.675" viewBox="0 0 61.807 61.675">
  <g id="search" transform="translate(0 0)">
    <g id="search-2" data-name="search" transform="translate(2.127 2.127)">
      <circle id="Ellipse_243" data-name="Ellipse 243" cx="19.141" cy="19.141" r="19.141" transform="translate(6.38 6.38)" fill="#67d798"/>
      <path id="search_2_" data-name="search (2)" d="M25.54,8.507A16.988,16.988,0,0,1,39.406,35.346l-1.68,2.361-2.361,1.68A17.005,17.005,0,1,1,25.54,8.507ZM25.54,0A25.521,25.521,0,1,0,40.291,46.323L52.275,58.309a4.24,4.24,0,0,0,5.991,0l.062-.062a4.028,4.028,0,0,0,0-5.991L46.342,40.272A25.5,25.5,0,0,0,25.54,0Z" transform="translate(0.017 0)" fill="#000100"/>
    </g>
    <g id="search-3" data-name="search" transform="translate(0 0)">
      <circle id="Ellipse_243-2" data-name="Ellipse 243" cx="19.141" cy="19.141" r="19.141" transform="translate(6.38 6.38)" fill="#a4e3dc"/>
      <path id="search_2_2" data-name="search (2)" d="M25.54,8.507A16.988,16.988,0,0,1,39.406,35.346l-1.68,2.361-2.361,1.68A17.005,17.005,0,1,1,25.54,8.507ZM25.54,0A25.521,25.521,0,1,0,40.291,46.323L52.275,58.309a4.24,4.24,0,0,0,5.991,0l.062-.062a4.028,4.028,0,0,0,0-5.991L46.342,40.272A25.5,25.5,0,0,0,25.54,0Z" transform="translate(0.017 0)" fill="#000100"/>
    </g>
  </g>
</svg>
